<?xml version="1.0" encoding="UTF-8" standalone="no"?>
<!-- Created with Inkscape (http://www.inkscape.org/) -->

<svg
   width="100"
   height="100"
   viewBox="0 0 26.458333 26.458333"
   version="1.1"
   id="svg1"
   inkscape:version="1.4 (e7c3feb1, 2024-10-09)"
   sodipodi:docname="logo.svg"
   inkscape:export-filename="logo.png"
   inkscape:export-xdpi="96"
   inkscape:export-ydpi="96"
   xmlns:inkscape="http://www.inkscape.org/namespaces/inkscape"
   xmlns:sodipodi="http://sodipodi.sourceforge.net/DTD/sodipodi-0.dtd"
   xmlns="http://www.w3.org/2000/svg"
   xmlns:svg="http://www.w3.org/2000/svg">
  <sodipodi:namedview
     id="namedview1"
     pagecolor="#ffffff"
     bordercolor="#000000"
     borderopacity="0.25"
     inkscape:showpageshadow="2"
     inkscape:pageopacity="0.0"
     inkscape:pagecheckerboard="0"
     inkscape:deskcolor="#d1d1d1"
     inkscape:document-units="px"
     inkscape:zoom="6.82"
     inkscape:cx="45.014663"
     inkscape:cy="48.240469"
     inkscape:window-width="1272"
     inkscape:window-height="1387"
     inkscape:window-x="1288"
     inkscape:window-y="25"
     inkscape:window-maximized="0"
     inkscape:current-layer="layer1"
     inkscape:export-bgcolor="#40514e" />
  <defs
     id="defs1" />
  <g
     inkscape:label="Layer 1"
     inkscape:groupmode="layer"
     id="layer1">
    <g
       transform="matrix(0.23520348,0,0,0.23520086,1.3606813,1.3501119)"
       class="css-7kgptb"
       fill="#e4f9f5"
       id="g2">
      <path
         fill-rule="evenodd"
         clip-rule="evenodd"
         d="m 50.459,95.503 c -2.519,0 -4.975,-0.259 -7.383,-0.655 l 2.064,-5.143 c 1.744,0.236 3.511,0.399 5.319,0.399 2.501,0 4.94,-0.261 7.313,-0.703 l -5.998,-6.497 h -8.514 -1.8 -1.8 v -5.398 h -5.899 c -0.623,1.07 -1.771,1.8 -3.099,1.8 -1.988,0 -3.601,-1.612 -3.601,-3.601 0,-1.989 1.612,-3.6 3.601,-3.6 1.329,0 2.477,0.728 3.099,1.8 h 5.899 v -1.8 -3.601 h 3.6 18 v 0.77 l 4.416,4.784 c 0.315,-0.09 0.641,-0.153 0.983,-0.153 1.988,0 3.6,1.612 3.6,3.601 0,1.987 -1.611,3.598 -3.6,3.598 -1.989,0 -3.599,-1.61 -3.599,-3.598 0,-0.296 0.044,-0.579 0.11,-0.854 L 58.973,72.105 H 43.261 v 7.2 H 54.06 v 0.768 l 7.725,8.366 c 6.576,-1.96 12.414,-5.601 17.071,-10.395 L 73.373,72.105 H 72.06 V 55.081 l -5.435,-5.883 c -1.503,1.309 -3.101,2.702 -4.651,4.053 -0.299,0.263 -0.893,0.779 -0.893,0.779 l -1.621,0.024 v 0.051 h -7.699 c -0.623,1.072 -1.771,1.801 -3.1,1.801 -1.988,0 -3.6,-1.612 -3.6,-3.601 0,-1.989 1.612,-3.599 3.6,-3.599 1.329,0 2.477,0.728 3.1,1.8 h 7.699 v 0.393 L 70.259,41.276 V 27.107 h -7.198 v 7.7 c 1.07,0.623 1.798,1.771 1.798,3.099 0,1.988 -1.61,3.601 -3.599,3.601 -1.987,0 -3.6,-1.612 -3.6,-3.601 0,-1.329 0.728,-2.477 1.8,-3.099 v -7.7 -1.8 -1.8 h 10.799 v -7.183 c -1.426,-0.825 -2.89,-1.593 -4.421,-2.238 -0.573,0.264 -1.206,0.422 -1.879,0.422 -2.484,0 -4.499,-2.015 -4.499,-4.5 0,-2.484 2.015,-4.499 4.499,-4.499 2.243,0 4.087,1.644 4.428,3.788 15.918,6.93 27.07,22.741 27.07,41.209 0,24.851 -20.145,44.997 -44.998,44.997 z M 81.058,52.306 c -1.988,0 -3.599,-1.61 -3.599,-3.599 0,-1.329 0.729,-2.477 1.799,-3.101 V 30.708 h 1.8 1.801 1.87 C 81.976,25.977 78.258,21.879 73.86,18.654 v 26.453 h -2.542 c -0.584,0.508 -1.25,1.09 -1.978,1.723 l 6.525,7.069 -0.271,0.207 h 0.064 v 5.4 h 2.3 c 0.622,-1.072 1.77,-1.8 3.099,-1.8 1.988,0 3.601,1.612 3.601,3.601 0,1.987 -1.612,3.6 -3.601,3.6 -1.329,0 -2.477,-0.729 -3.099,-1.8 h -2.3 v 6.168 l 5.598,6.063 c 5.489,-6.791 8.802,-15.415 8.802,-24.831 0,-5.783 -1.266,-11.257 -3.498,-16.199 h -3.702 v 11.298 c 1.072,0.625 1.8,1.772 1.8,3.101 0,1.988 -1.612,3.599 -3.6,3.599 z M 50.459,10.908 c -1.214,0 -2.412,0.076 -3.598,0.183 v 11.386 l 4.416,4.784 c 0.314,-0.09 0.64,-0.153 0.982,-0.153 1.988,0 3.601,1.612 3.601,3.601 0,1.988 -1.612,3.6 -3.601,3.6 -1.989,0 -3.599,-1.612 -3.599,-3.6 0,-0.295 0.044,-0.579 0.111,-0.853 l -2.535,-2.748 h -1.918 l -6.35,5.536 4.86,5.263 h 0.431 v 0.468 l 0.018,0.02 -0.018,0.016 V 61.308 H 61.76 c 0.622,-1.073 1.77,-1.801 3.099,-1.801 1.988,0 3.601,1.612 3.601,3.601 0,1.989 -1.612,3.599 -3.601,3.599 -1.329,0 -2.477,-0.729 -3.099,-1.799 h -18.499 -1.8 -1.8 V 39.782 L 23.152,21.899 c -1,0.953 -1.942,1.963 -2.839,3.015 L 35.63,41.507 h 0.431 v 0.467 l 0.018,0.02 -0.018,0.016 v 21.097 3.599 h -3.599 -9 -1.798 -1.8 v -8.999 h -8.327 c 2.744,14.895 13.823,26.857 28.229,30.896 l -2.025,5.049 C 19.088,88.158 5.464,70.936 5.464,50.507 5.464,25.655 25.61,5.51 50.46,5.51 c 2.447,0 4.831,0.248 7.172,0.624 L 55.57,11.276 C 53.893,11.06 52.196,10.908 50.459,10.908 Z M 18.068,27.79 c -4.534,6.425 -7.206,14.251 -7.206,22.717 0,1.214 0.063,2.412 0.171,3.599 h 12.428 v 1.801 1.8 5.4 h 9 V 43.382 l -5.627,-6.095 -5.231,7.245 c 0.031,0.188 0.06,0.378 0.06,0.575 0,1.988 -1.612,3.6 -3.6,3.6 -1.988,0 -3.6,-1.612 -3.6,-3.6 0,-1.988 1.612,-3.6 3.6,-3.6 0.401,0 0.779,0.081 1.139,0.202 l 5.142,-7.12 z M 43.261,11.594 c -6.497,1.195 -12.418,3.998 -17.389,7.942 l 9.656,10.461 7.733,-6.742 z"
         id="path1" />
    </g>
  </g>
</svg>
